<?xml version="1.0" encoding="utf-8"?>
<!-- Generator: Adobe Illustrator 24.1.2, SVG Export Plug-In . SVG Version: 6.00 Build 0)  -->
<svg version="1.1" id="Слой_1" xmlns="http://www.w3.org/2000/svg" xmlns:xlink="http://www.w3.org/1999/xlink" x="0px" y="0px"
	 viewBox="0 0 595.3 841.9" style="enable-background:new 0 0 595.3 841.9;" xml:space="preserve">
<style type="text/css">
	.st0{fill:#FFFFFF;stroke:#000000;stroke-width:15;stroke-miterlimit:10;}
	.st1{fill:#9D9D9C;}
	.st2{fill:#3C3C3B;}
	.st3{fill:#58B031;}
</style>
<path class="st0" d="M-1404.4,3547.3h-532c-36.3,0-65.8-29.4-65.8-65.8v-83.1c0-36.3,29.4-65.8,65.8-65.8h532
	c36.3,0,65.8,29.4,65.8,65.8v83.1C-1338.6,3517.9-1368.1,3547.3-1404.4,3547.3z"/>
<g>
	<g>
		<path d="M-1874.2,3472c-4.8,0-9.3-0.8-13.6-2.4s-8.2-4-11.5-7.3c-3.4-3.2-6-7.3-8-12.2c-2-4.9-2.9-10.5-2.9-17
			c0-8.5,1.7-15.7,5-21.7c3.4-6,7.8-10.5,13.5-13.6c5.6-3.1,11.9-4.7,18.7-4.7c4.9,0,9.4,1,13.4,3c4,2,7.4,4.3,10,6.8l-11,12.4
			c-1.7-1.6-3.6-2.8-5.6-3.6c-2-0.9-4.3-1.3-6.8-1.3c-3.1,0-5.9,0.9-8.4,2.6c-2.5,1.8-4.5,4.3-6,7.5c-1.5,3.3-2.2,7.2-2.2,11.8
			c0,4.8,0.7,8.8,2.2,12.1c1.5,3.3,3.5,5.8,6.2,7.5c2.7,1.7,5.7,2.6,9.1,2.6c2.5,0,4.8-0.6,6.8-1.8c2.1-1.2,3.9-2.6,5.6-4.3l11,12.2
			c-3.1,3.7-6.9,6.6-11.2,8.4C-1864.3,3471-1869.1,3472-1874.2,3472z"/>
		<path d="M-1810.8,3472c-5.1,0-10-1.2-14.6-3.6c-4.6-2.4-8.3-5.9-11.2-10.5c-2.9-4.6-4.3-10.1-4.3-16.6c0-6.5,1.4-12,4.3-16.6
			c2.9-4.6,6.6-8.1,11.2-10.5c4.6-2.4,9.5-3.6,14.6-3.6c5.1,0,10,1.2,14.6,3.6c4.6,2.4,8.3,5.9,11.2,10.5c2.9,4.6,4.3,10.1,4.3,16.6
			c0,6.5-1.4,12-4.3,16.6c-2.9,4.6-6.6,8.1-11.2,10.5C-1800.8,3470.8-1805.7,3472-1810.8,3472z M-1810.8,3455.8
			c2.3,0,4.1-0.6,5.5-1.8c1.4-1.2,2.4-2.8,3.1-5c0.7-2.2,1-4.8,1-7.7c0-3-0.3-5.5-1-7.7c-0.7-2.2-1.7-3.9-3.1-5
			c-1.4-1.2-3.2-1.8-5.5-1.8c-2.3,0-4.1,0.6-5.5,1.8c-1.4,1.2-2.4,2.8-3.1,5c-0.7,2.2-1,4.8-1,7.7c0,3,0.3,5.5,1,7.7
			c0.7,2.2,1.7,3.9,3.1,5C-1814.9,3455.3-1813.1,3455.8-1810.8,3455.8z"/>
		<path d="M-1772.7,3470.6v-58.5h15l1.4,7h0.5c0.9-2.3,2.4-4.2,4.4-5.9c2-1.7,4.7-2.5,8-2.5c2.4,0,4.5,0.8,6.3,2.4
			c1.8,1.6,2.9,3.9,3.6,7c0.9-2.5,2.3-4.7,4.4-6.6c2.1-1.9,4.8-2.8,8.2-2.8c4.2,0,7.4,1.7,9.7,5.2c2.3,3.5,3.4,8.1,3.4,14v40.7h-19
			v-39.3c0-2.3-0.7-3.5-2-3.5c-0.8,0-1.5,0.4-2.1,1.1c-0.6,0.7-1.2,1.8-1.8,3.4v38.4h-15.2v-39.3c0-1.2-0.2-2.1-0.6-2.7
			c-0.4-0.5-1-0.8-1.8-0.8c-0.7,0-1.3,0.4-1.9,1.1c-0.5,0.7-1.1,1.8-1.6,3.4v38.4H-1772.7z"/>
		<path d="M-1702.5,3470.6v-58.5h15l1.4,7h0.5c0.9-2.3,2.4-4.2,4.4-5.9c2-1.7,4.7-2.5,8-2.5c2.4,0,4.5,0.8,6.3,2.4
			c1.8,1.6,2.9,3.9,3.6,7c0.9-2.5,2.3-4.7,4.4-6.6c2.1-1.9,4.8-2.8,8.2-2.8c4.2,0,7.4,1.7,9.7,5.2c2.3,3.5,3.4,8.1,3.4,14v40.7h-19
			v-39.3c0-2.3-0.7-3.5-2-3.5c-0.8,0-1.5,0.4-2.1,1.1c-0.6,0.7-1.2,1.8-1.8,3.4v38.4h-15.2v-39.3c0-1.2-0.2-2.1-0.6-2.7
			c-0.4-0.5-1-0.8-1.8-0.8c-0.7,0-1.3,0.4-1.9,1.1c-0.5,0.7-1.1,1.8-1.6,3.4v38.4H-1702.5z"/>
		<path d="M-1610,3472c-4.1,0-7.5-0.8-10.3-2.5c-2.8-1.7-5-3.9-6.4-6.6c-1.5-2.7-2.2-5.7-2.2-8.9c0-6.6,2.8-11.6,8.5-15
			c5.7-3.5,15.2-5.6,28.5-6.3c-0.2-1.4-0.8-2.6-1.8-3.5c-0.9-0.9-2.2-1.6-3.8-2c-1.6-0.4-3.5-0.6-5.7-0.6c-1.6,0-3.3,0.2-5,0.5
			c-1.7,0.4-3.5,0.9-5.4,1.6c-1.9,0.7-4,1.7-6.4,2.7l-7-13.1c3-1.6,6-3,9-4.2c3-1.2,6.1-2,9.2-2.6c3.1-0.6,6.3-0.9,9.6-0.9
			c5.5,0,10.4,1,14.4,2.9c4.1,1.9,7.3,4.9,9.5,8.9c2.3,4,3.4,9.2,3.4,15.6v32.5h-16.4l-1.4-6.1h-0.5c-2.9,2.1-6,3.9-9.4,5.3
			C-1602.9,3471.3-1606.4,3472-1610,3472z M-1603.5,3456.5c2.3,0,4.4-0.4,6.3-1.3c1.9-0.9,3.6-1.9,5.1-3.1v-7.5
			c-4.8,0.2-8.4,0.6-11,1.3c-2.6,0.7-4.3,1.6-5.3,2.7c-1,1.1-1.5,2.4-1.5,3.7c0,0.9,0.2,1.6,0.7,2.3c0.5,0.7,1.2,1.2,2.1,1.5
			C-1606.1,3456.4-1604.9,3456.5-1603.5,3456.5z"/>
		<path d="M-1557.6,3470.6v-58.5h16.4l1.4,7h0.5c2.3-2.3,5.1-4.2,8.3-5.9c3.2-1.7,6.9-2.5,11.2-2.5c6.5,0,11.2,2.2,14.2,6.5
			c3,4.3,4.4,10.1,4.4,17.4v36h-20.1v-33.5c0-3.3-0.5-5.7-1.5-7.1c-1-1.5-2.8-2.2-5.3-2.2c-1.9,0-3.5,0.4-4.9,1.2
			c-1.4,0.8-2.9,1.9-4.4,3.3v38.4H-1557.6z"/>
		<path d="M-1465.5,3472c-7.4,0-13.3-2.8-17.8-8.2s-6.7-13-6.7-22.4c0-6.4,1.2-11.9,3.6-16.4c2.4-4.6,5.4-8.1,9.2-10.5
			s7.6-3.7,11.7-3.7c3.1,0,5.8,0.5,7.9,1.5c2.1,1,4.1,2.5,5.8,4.3h0.5l-0.9-8.4v-19h20.1v81.4h-16.4l-1.4-5.4h-0.5
			c-2,2-4.4,3.6-7.1,4.9C-1460.2,3471.3-1462.9,3472-1465.5,3472z M-1460.3,3455.6c1.6,0,3.1-0.3,4.4-0.9s2.5-1.7,3.6-3.3v-21.5
			c-1.2-1.1-2.4-1.8-3.7-2.2c-1.3-0.4-2.6-0.6-4-0.6c-1.6,0-3.2,0.5-4.6,1.3c-1.4,0.9-2.6,2.4-3.5,4.4c-0.9,2.1-1.3,4.8-1.3,8.2
			c0,5.2,0.8,9,2.4,11.2C-1465.4,3454.5-1463.2,3455.6-1460.3,3455.6z"/>
	</g>
</g>
<polygon style="fill:none;" points="-1385.9,3532 -1382.5,3532 -1382.5,3532 -1385.9,3532 "/>
<path class="st0" d="M-145.7,1979h-532c-36.3,0-65.8-29.4-65.8-65.8v-83.1c0-36.3,29.4-65.8,65.8-65.8h532
	c36.3,0,65.8,29.4,65.8,65.8v83.1C-80,1949.6-109.4,1979-145.7,1979z"/>
<rect x="-738.9" y="1820.8" style="fill:none;" width="654.2" height="116.8"/>
<text transform="matrix(1 0 0 1 -627.7419 1904.3484)" style="font-family:'SourceCodePro-Black'; font-size:120px;">Blocks</text>
<polygon style="fill:none;" points="-117.3,1963.7 -113.9,1963.7 -113.9,1963.7 -117.3,1963.7 "/>
<path class="st0" d="M1617.5,1628.2H592.8c-36.3,0-65.8-29.4-65.8-65.8v-83.1c0-36.3,29.4-65.8,65.8-65.8h1024.8
	c36.3,0,65.8,29.4,65.8,65.8v83.1C1683.3,1598.7,1653.9,1628.2,1617.5,1628.2z"/>
<rect x="575" y="1473.5" style="fill:none;" width="1053.9" height="116.8"/>
<text transform="matrix(1 0 0 1 633.9312 1556.9861)" style="font-family:'SourceCodePro-Black'; font-size:120px;">Ifblock/EndIf</text>
<polygon style="fill:none;" points="1118.5,1605.3 1121.9,1605.3 1121.9,1605.3 1118.5,1605.3 "/>
<path class="st0" d="M1720.3,1979H490c-36.3,0-65.8-29.4-65.8-65.8v-83.1c0-36.3,29.4-65.8,65.8-65.8h1230.2
	c36.3,0,65.8,29.4,65.8,65.8v83.1C1786,1949.6,1756.6,1979,1720.3,1979z"/>
<g>
	<g>
	</g>
</g>
<g>
	<g>
		<path d="M500.8,1910.5v-78h29.3c5.6,0,10.8,0.8,15.5,2.4c4.7,1.6,8.5,4.3,11.4,8c2.9,3.8,4.3,8.9,4.3,15.5
			c0,6.3-1.5,11.5-4.4,15.5c-2.9,4-6.8,7-11.5,8.9c-4.8,1.9-9.9,2.9-15.3,2.9h-8.6v24.7H500.8z M521.5,1869.5h7.7
			c4.1,0,7.1-1,9.1-2.9c2-2,2.9-4.7,2.9-8.1c0-3.5-1-6-3.1-7.4c-2.1-1.4-5-2.2-8.9-2.2h-7.7V1869.5z"/>
		<path d="M577.6,1910.5v-60h16.9l1.6,12.7h0.5c2.9-5,6.4-8.6,10.5-10.8c4.1-2.2,8.4-3.4,12.9-3.4c2.8,0,5,0.2,6.5,0.7
			c1.6,0.4,3.2,1,4.9,1.7l-4.1,17.3c-1.8-0.6-3.4-1-4.9-1.3c-1.5-0.3-3.4-0.4-5.5-0.4c-3.4,0-6.8,1-10.2,3.1
			c-3.4,2-6.2,5.6-8.4,10.6v29.8H577.6z"/>
		<path d="M673.2,1911.9c-5.3,0-10.3-1.2-15-3.7c-4.7-2.5-8.6-6.1-11.5-10.7c-3-4.7-4.4-10.3-4.4-17c0-6.6,1.5-12.3,4.4-17
			c3-4.7,6.8-8.3,11.5-10.7c4.7-2.5,9.7-3.7,15-3.7s10.3,1.2,15,3.7c4.7,2.5,8.6,6.1,11.5,10.7c3,4.7,4.4,10.3,4.4,17
			c0,6.6-1.5,12.3-4.4,17c-3,4.7-6.8,8.3-11.5,10.7C683.4,1910.7,678.4,1911.9,673.2,1911.9z M673.2,1895.4c2.3,0,4.2-0.6,5.6-1.8
			c1.4-1.2,2.5-2.9,3.2-5.2c0.7-2.2,1-4.9,1-7.9c0-3-0.3-5.7-1-7.9c-0.7-2.2-1.7-4-3.2-5.2c-1.4-1.2-3.3-1.8-5.6-1.8
			c-2.3,0-4.2,0.6-5.6,1.8c-1.4,1.2-2.5,2.9-3.2,5.2c-0.7,2.2-1,4.9-1,7.9c0,3,0.3,5.7,1,7.9c0.7,2.2,1.7,4,3.2,5.2
			C669,1894.8,670.8,1895.4,673.2,1895.4z"/>
		<path d="M750.2,1911.9c-6.3,0-12-1.2-17.1-3.7c-5.1-2.5-9.1-6.1-12.1-10.7c-3-4.7-4.4-10.3-4.4-17c0-6.6,1.6-12.3,4.9-17
			c3.3-4.7,7.6-8.3,13-10.7c5.4-2.5,11.1-3.7,17.3-3.7c4.7,0,9.1,0.7,13,2.2c4,1.4,7.2,3.4,9.7,5.8l-9.4,12.7
			c-2.2-1.5-4.3-2.6-6.3-3.2c-2-0.6-3.9-0.9-5.8-0.9c-3,0-5.6,0.6-7.9,1.8c-2.3,1.2-4.1,2.9-5.4,5.2c-1.3,2.2-1.9,4.9-1.9,7.9
			c0,3,0.6,5.7,1.9,7.9c1.2,2.2,3,4,5.2,5.2c2.2,1.2,4.7,1.8,7.5,1.8c3,0,5.7-0.5,8.1-1.6c2.4-1,4.7-2.2,6.7-3.5l8.2,13
			c-3.7,3-7.8,5.2-12.2,6.6C758.4,1911.3,754.2,1911.9,750.2,1911.9z"/>
		<path d="M820.8,1911.9c-6.3,0-12-1.2-17.1-3.7c-5.1-2.5-9.1-6.1-12.1-10.7c-3-4.7-4.4-10.3-4.4-17c0-6.6,1.5-12.2,4.5-16.9
			c3-4.7,6.9-8.3,11.7-10.8c4.8-2.5,9.9-3.8,15.2-3.8c6.3,0,11.6,1.3,15.8,3.9c4.2,2.6,7.4,6.1,9.5,10.5c2.1,4.4,3.2,9.3,3.2,14.6
			c0,1.8-0.1,3.5-0.3,5.1c-0.2,1.6-0.4,2.8-0.5,3.5h-43.6v-13.4H832l-2.9,3.6c0-4-0.8-7-2.4-9.1c-1.6-2.1-4.1-3.1-7.4-3.1
			c-2.6,0-4.9,0.6-6.7,1.7c-1.8,1.1-3.2,2.9-4.1,5.2c-1,2.4-1.4,5.3-1.4,8.9c0,3.8,0.6,6.8,1.9,9.1c1.2,2.3,3.1,4,5.5,5.1
			c2.4,1.1,5.5,1.6,9.2,1.6c2.4,0,4.7-0.3,7-0.9c2.3-0.6,4.7-1.5,7.4-2.7l6.7,12.2c-3.6,2.2-7.6,4-11.9,5.2
			C828.6,1911.3,824.5,1911.9,820.8,1911.9z"/>
		<path d="M883.3,1911.9c-7.6,0-13.7-2.8-18.2-8.5c-4.6-5.6-6.8-13.3-6.8-23c0-6.6,1.2-12.2,3.7-16.9c2.4-4.7,5.6-8.3,9.4-10.8
			c3.8-2.5,7.8-3.8,12-3.8c3.2,0,5.9,0.5,8.1,1.6c2.2,1,4.2,2.5,5.9,4.4h0.5l-1-8.6V1827h20.6v83.5h-16.8l-1.4-5.5h-0.5
			c-2.1,2-4.5,3.7-7.3,5S886,1911.9,883.3,1911.9z M888.7,1895.1c1.7,0,3.2-0.3,4.5-0.9c1.3-0.6,2.5-1.7,3.7-3.4v-22.1
			c-1.2-1.1-2.5-1.9-3.8-2.3c-1.3-0.4-2.7-0.6-4.1-0.6c-1.7,0-3.3,0.5-4.7,1.4c-1.5,0.9-2.7,2.4-3.5,4.6c-0.9,2.1-1.3,4.9-1.3,8.5
			c0,5.4,0.8,9.2,2.5,11.5C883.4,1894,885.7,1895.1,888.7,1895.1z"/>
		<path d="M950.8,1911.9c-6.7,0-11.6-2.2-14.5-6.7c-3-4.4-4.4-10.4-4.4-17.8v-37h20.6v34.3c0,3.4,0.5,5.8,1.4,7.3
			c0.9,1.5,2.7,2.3,5.5,2.3c1.8,0,3.3-0.3,4.7-1c1.4-0.7,2.8-2.1,4.3-4.3v-38.6H989v60h-16.8l-1.4-7.9h-0.5
			c-2.5,2.9-5.3,5.2-8.4,6.8S955.1,1911.9,950.8,1911.9z"/>
		<path d="M1009.6,1910.5v-60h16.9l1.6,12.7h0.5c2.9-5,6.4-8.6,10.5-10.8c4.1-2.2,8.4-3.4,12.9-3.4c2.8,0,5,0.2,6.5,0.7
			c1.6,0.4,3.2,1,4.9,1.7l-4.1,17.3c-1.8-0.6-3.4-1-4.9-1.3c-1.5-0.3-3.4-0.4-5.5-0.4c-3.4,0-6.8,1-10.2,3.1
			c-3.4,2-6.2,5.6-8.4,10.6v29.8H1009.6z"/>
		<path d="M1108.8,1911.9c-6.3,0-12-1.2-17.1-3.7c-5.1-2.5-9.1-6.1-12.1-10.7c-3-4.7-4.4-10.3-4.4-17c0-6.6,1.5-12.2,4.5-16.9
			c3-4.7,6.9-8.3,11.7-10.8c4.8-2.5,9.9-3.8,15.2-3.8c6.3,0,11.6,1.3,15.8,3.9c4.2,2.6,7.4,6.1,9.5,10.5c2.1,4.4,3.2,9.3,3.2,14.6
			c0,1.8-0.1,3.5-0.3,5.1c-0.2,1.6-0.4,2.8-0.5,3.5h-43.6v-13.4h29.3l-2.9,3.6c0-4-0.8-7-2.4-9.1c-1.6-2.1-4.1-3.1-7.4-3.1
			c-2.6,0-4.9,0.6-6.7,1.7c-1.8,1.1-3.2,2.9-4.1,5.2c-1,2.4-1.4,5.3-1.4,8.9c0,3.8,0.6,6.8,1.9,9.1c1.2,2.3,3.1,4,5.5,5.1
			c2.4,1.1,5.5,1.6,9.2,1.6c2.4,0,4.7-0.3,7-0.9c2.3-0.6,4.7-1.5,7.4-2.7l6.7,12.2c-3.6,2.2-7.6,4-11.9,5.2
			C1116.6,1911.3,1112.5,1911.9,1108.8,1911.9z"/>
		<path d="M1148.8,1929.7l39.6-104.4h17l-39.6,104.4H1148.8z"/>
		<path d="M1223.2,1910.5v-78h53v17.3h-32.4v12.2h27.6v17.3h-27.6v13.9h33.6v17.3H1223.2z"/>
		<path d="M1292.8,1910.5v-60h16.8l1.4,7.2h0.5c2.4-2.3,5.2-4.3,8.5-6.1c3.3-1.7,7.1-2.6,11.5-2.6c6.6,0,11.5,2.2,14.5,6.7
			c3,4.4,4.6,10.4,4.6,17.8v37H1330v-34.3c0-3.4-0.5-5.8-1.5-7.3c-1-1.5-2.8-2.3-5.5-2.3c-1.9,0-3.6,0.4-5,1.2
			c-1.4,0.8-3,1.9-4.6,3.4v39.4H1292.8z"/>
		<path d="M1387.3,1911.9c-7.6,0-13.7-2.8-18.2-8.5c-4.6-5.6-6.8-13.3-6.8-23c0-6.6,1.2-12.2,3.7-16.9c2.4-4.7,5.6-8.3,9.4-10.8
			c3.8-2.5,7.8-3.8,12-3.8c3.2,0,5.9,0.5,8.1,1.6c2.2,1,4.2,2.5,5.9,4.4h0.5l-1-8.6V1827h20.6v83.5h-16.8l-1.4-5.5h-0.5
			c-2.1,2-4.5,3.7-7.3,5S1390,1911.9,1387.3,1911.9z M1392.7,1895.1c1.7,0,3.2-0.3,4.5-0.9c1.3-0.6,2.5-1.7,3.7-3.4v-22.1
			c-1.2-1.1-2.5-1.9-3.8-2.3c-1.3-0.4-2.7-0.6-4.1-0.6c-1.7,0-3.3,0.5-4.7,1.4c-1.5,0.9-2.7,2.4-3.5,4.6c-0.9,2.1-1.3,4.9-1.3,8.5
			c0,5.4,0.8,9.2,2.5,11.5C1387.4,1894,1389.7,1895.1,1392.7,1895.1z"/>
		<path d="M1436.8,1910.5v-78h29.3c5.6,0,10.8,0.8,15.5,2.4c4.7,1.6,8.5,4.3,11.4,8c2.9,3.8,4.3,8.9,4.3,15.5
			c0,6.3-1.5,11.5-4.4,15.5c-2.9,4-6.8,7-11.5,8.9c-4.8,1.9-9.9,2.9-15.3,2.9h-8.6v24.7H1436.8z M1457.5,1869.5h7.7
			c4.1,0,7.1-1,9.1-2.9c2-2,2.9-4.7,2.9-8.1c0-3.5-1-6-3.1-7.4c-2.1-1.4-5-2.2-8.9-2.2h-7.7V1869.5z"/>
		<path d="M1513.6,1910.5v-60h16.9l1.6,12.7h0.5c2.9-5,6.4-8.6,10.5-10.8c4.1-2.2,8.4-3.4,12.9-3.4c2.8,0,5,0.2,6.5,0.7
			c1.6,0.4,3.2,1,4.9,1.7l-4.1,17.3c-1.8-0.6-3.4-1-4.9-1.3c-1.5-0.3-3.4-0.4-5.5-0.4c-3.4,0-6.8,1-10.2,3.1
			c-3.4,2-6.2,5.6-8.4,10.6v29.8H1513.6z"/>
		<path d="M1609.1,1911.9c-5.3,0-10.3-1.2-15-3.7c-4.7-2.5-8.6-6.1-11.5-10.7c-3-4.7-4.4-10.3-4.4-17c0-6.6,1.5-12.3,4.4-17
			c3-4.7,6.8-8.3,11.5-10.7c4.7-2.5,9.7-3.7,15-3.7s10.3,1.2,15,3.7c4.7,2.5,8.6,6.1,11.5,10.7c3,4.7,4.4,10.3,4.4,17
			c0,6.6-1.5,12.3-4.4,17c-3,4.7-6.8,8.3-11.5,10.7C1619.4,1910.7,1614.4,1911.9,1609.1,1911.9z M1609.1,1895.4
			c2.3,0,4.2-0.6,5.6-1.8c1.4-1.2,2.5-2.9,3.2-5.2c0.7-2.2,1-4.9,1-7.9c0-3-0.3-5.7-1-7.9c-0.7-2.2-1.7-4-3.2-5.2
			c-1.4-1.2-3.3-1.8-5.6-1.8c-2.3,0-4.2,0.6-5.6,1.8c-1.4,1.2-2.5,2.9-3.2,5.2c-0.7,2.2-1,4.9-1,7.9c0,3,0.3,5.7,1,7.9
			c0.7,2.2,1.7,4,3.2,5.2C1604.9,1894.8,1606.8,1895.4,1609.1,1895.4z"/>
		<path d="M1686.2,1911.9c-6.3,0-12-1.2-17.1-3.7c-5.1-2.5-9.1-6.1-12.1-10.7c-3-4.7-4.4-10.3-4.4-17c0-6.6,1.6-12.3,4.9-17
			c3.3-4.7,7.6-8.3,13-10.7c5.4-2.5,11.1-3.7,17.3-3.7c4.7,0,9.1,0.7,13,2.2c4,1.4,7.2,3.4,9.7,5.8l-9.4,12.7
			c-2.2-1.5-4.3-2.6-6.3-3.2c-2-0.6-3.9-0.9-5.8-0.9c-3,0-5.6,0.6-7.9,1.8c-2.3,1.2-4.1,2.9-5.4,5.2c-1.3,2.2-1.9,4.9-1.9,7.9
			c0,3,0.6,5.7,1.9,7.9c1.2,2.2,3,4,5.2,5.2c2.2,1.2,4.7,1.8,7.5,1.8c3,0,5.7-0.5,8.1-1.6c2.4-1,4.7-2.2,6.7-3.5l8.2,13
			c-3.7,3-7.8,5.2-12.2,6.6C1694.4,1911.3,1690.2,1911.9,1686.2,1911.9z"/>
	</g>
</g>
<polygon style="fill:none;" points="519.5,2178.2 521.8,2178.2 521.8,2178.2 519.5,2178.2 "/>
<path class="st0" d="M1715.6,2329.9H524.9c-36.3,0-65.8-29.4-65.8-65.8V2181c0-36.3,29.4-65.8,65.8-65.8h1190.7
	c36.3,0,65.8,29.4,65.8,65.8v83.1C1781.3,2300.4,1751.9,2329.9,1715.6,2329.9z"/>
<g>
	<g>
	</g>
</g>
<g>
	<g>
		<path d="M557,2261.4v-78h29c5.6,0,10.8,0.7,15.5,2.2c4.7,1.5,8.5,4.1,11.4,7.7c2.9,3.7,4.3,8.8,4.3,15.2c0,6.2-1.4,11.3-4.3,15.2
			c-2.9,3.9-6.7,6.8-11.4,8.6c-4.7,1.8-9.9,2.8-15.5,2.8h-8.4v26.2H557z M577.6,2218.9h7c4.1,0,7.2-0.9,9.3-2.6
			c2.1-1.8,3.2-4.3,3.2-7.7c0-3.4-1.1-5.7-3.2-7c-2.1-1.3-5.2-1.9-9.3-1.9h-7V2218.9z M582.3,2229.8l13.9-13.7l25.3,45.2h-23
			L582.3,2229.8z"/>
		<path d="M661.6,2262.8c-6.3,0-12-1.2-17.1-3.7c-5.1-2.5-9.1-6.1-12.1-10.7c-3-4.7-4.4-10.3-4.4-17c0-6.6,1.5-12.2,4.5-16.9
			c3-4.7,6.9-8.3,11.7-10.8c4.8-2.5,9.9-3.8,15.2-3.8c6.3,0,11.6,1.3,15.8,3.9c4.2,2.6,7.4,6.1,9.5,10.5c2.1,4.4,3.2,9.3,3.2,14.6
			c0,1.8-0.1,3.5-0.3,5.1c-0.2,1.6-0.4,2.8-0.5,3.5h-43.6v-13.4h29.3l-2.9,3.6c0-4-0.8-7-2.4-9.1c-1.6-2.1-4.1-3.1-7.4-3.1
			c-2.6,0-4.9,0.6-6.7,1.7c-1.8,1.1-3.2,2.9-4.1,5.2c-1,2.4-1.4,5.3-1.4,8.9c0,3.8,0.6,6.8,1.9,9.1c1.2,2.3,3.1,4,5.5,5.1
			c2.4,1.1,5.5,1.6,9.2,1.6c2.4,0,4.7-0.3,7-0.9c2.3-0.6,4.7-1.5,7.4-2.7l6.7,12.2c-3.6,2.2-7.6,4-11.9,5.2
			C669.4,2262.2,665.4,2262.8,661.6,2262.8z"/>
		<path d="M701.7,2282.5v-81.1h16.8l1.4,5.5h0.5c2.3-2.1,4.9-3.8,7.9-5c2.9-1.3,5.9-1.9,8.9-1.9c4.9,0,9.1,1.3,12.6,3.8
			c3.5,2.5,6.3,6.1,8.2,10.6s2.9,9.9,2.9,16.1c0,6.9-1.2,12.7-3.7,17.6c-2.4,4.8-5.6,8.5-9.5,11c-3.9,2.5-8,3.8-12.4,3.8
			c-2.6,0-5-0.5-7.3-1.6s-4.4-2.5-6.3-4.4h-0.5l1,9.1v16.6H701.7z M730.5,2246c1.7,0,3.2-0.5,4.6-1.4s2.5-2.6,3.4-4.8
			c0.9-2.2,1.3-5.3,1.3-9.1c0-3.3-0.3-5.9-1-8s-1.7-3.5-2.9-4.5c-1.3-1-2.9-1.4-4.9-1.4c-1.6,0-3.1,0.3-4.4,1
			c-1.4,0.6-2.8,1.8-4.2,3.4v22.1c1.3,1,2.6,1.8,4,2.2C727.8,2245.8,729.1,2246,730.5,2246z"/>
		<path d="M805.6,2262.8c-6.3,0-12-1.2-17.1-3.7c-5.1-2.5-9.1-6.1-12.1-10.7c-3-4.7-4.4-10.3-4.4-17c0-6.6,1.5-12.2,4.5-16.9
			c3-4.7,6.9-8.3,11.7-10.8c4.8-2.5,9.9-3.8,15.2-3.8c6.3,0,11.6,1.3,15.8,3.9c4.2,2.6,7.4,6.1,9.5,10.5c2.1,4.4,3.2,9.3,3.2,14.6
			c0,1.8-0.1,3.5-0.3,5.1c-0.2,1.6-0.4,2.8-0.5,3.5h-43.6v-13.4h29.3l-2.9,3.6c0-4-0.8-7-2.4-9.1c-1.6-2.1-4.1-3.1-7.4-3.1
			c-2.6,0-4.9,0.6-6.7,1.7c-1.8,1.1-3.2,2.9-4.1,5.2c-1,2.4-1.4,5.3-1.4,8.9c0,3.8,0.6,6.8,1.9,9.1c1.2,2.3,3.1,4,5.5,5.1
			c2.4,1.1,5.5,1.6,9.2,1.6c2.4,0,4.7-0.3,7-0.9c2.3-0.6,4.7-1.5,7.4-2.7l6.7,12.2c-3.6,2.2-7.6,4-11.9,5.2
			C813.4,2262.2,809.4,2262.8,805.6,2262.8z"/>
		<path d="M863.9,2262.8c-4.2,0-7.7-0.9-10.6-2.6c-2.9-1.7-5.1-4-6.6-6.8c-1.5-2.8-2.3-5.8-2.3-9.1c0-6.7,2.9-11.9,8.7-15.4
			c5.8-3.6,15.5-5.7,29.2-6.4c-0.2-1.4-0.8-2.6-1.8-3.5c-1-0.9-2.3-1.6-3.9-2c-1.6-0.4-3.6-0.7-5.8-0.7c-1.7,0-3.4,0.2-5.2,0.5
			s-3.6,0.9-5.6,1.7c-2,0.8-4.1,1.7-6.5,2.8l-7.2-13.4c3-1.7,6.1-3.1,9.2-4.3c3.1-1.2,6.3-2.1,9.5-2.7c3.2-0.6,6.5-0.9,9.8-0.9
			c5.7,0,10.6,1,14.8,2.9c4.2,2,7.5,5,9.8,9.1c2.3,4.1,3.5,9.5,3.5,16v33.4h-16.8l-1.4-6.2h-0.5c-3,2.2-6.2,4-9.6,5.5
			S867.7,2262.8,863.9,2262.8z M870.6,2247c2.4,0,4.6-0.5,6.5-1.4c1.9-0.9,3.7-2,5.3-3.2v-7.7c-4.9,0.2-8.6,0.6-11.3,1.3
			c-2.6,0.7-4.5,1.7-5.5,2.8c-1,1.2-1.5,2.4-1.5,3.8c0,0.9,0.2,1.7,0.7,2.3c0.5,0.7,1.2,1.2,2.2,1.5
			C868,2246.8,869.2,2247,870.6,2247z"/>
		<path d="M956.3,2262.8c-6.6,0-11.8-1.1-15.7-3.4c-3.9-2.2-6.8-5.4-8.5-9.4c-1.8-4-2.6-8.7-2.6-14.1v-18.5H915v-15.4l15.4-0.7
			l2.6-18h17v18h23.8v16.1h-23.8v18.1c0,2.8,0.4,5,1.3,6.7c0.9,1.6,2.2,2.8,3.9,3.5c1.7,0.7,3.9,1,6.4,1c2.1,0,4-0.2,5.8-0.5
			c1.8-0.4,3.5-0.8,5.1-1.4l3.6,14.9c-2.6,0.7-5.6,1.4-8.9,2.1C964.1,2262.5,960.4,2262.8,956.3,2262.8z"/>
		<path d="M989.7,2280.6l39.6-104.4h17l-39.6,104.4H989.7z"/>
		<path d="M1064.1,2261.4v-78h53v17.3h-32.4v12.2h27.6v17.3h-27.6v13.9h33.6v17.3H1064.1z"/>
		<path d="M1133.7,2261.4v-60h16.8l1.4,7.2h0.5c2.4-2.3,5.2-4.3,8.5-6.1c3.3-1.7,7.1-2.6,11.5-2.6c6.6,0,11.5,2.2,14.5,6.7
			c3,4.4,4.6,10.4,4.6,17.8v37h-20.6V2227c0-3.4-0.5-5.8-1.5-7.3c-1-1.5-2.8-2.3-5.5-2.3c-1.9,0-3.6,0.4-5,1.2
			c-1.4,0.8-3,1.9-4.6,3.4v39.4H1133.7z"/>
		<path d="M1228.1,2262.8c-7.6,0-13.7-2.8-18.2-8.5c-4.6-5.6-6.8-13.3-6.8-23c0-6.6,1.2-12.2,3.7-16.9c2.4-4.7,5.6-8.3,9.4-10.8
			c3.8-2.5,7.8-3.8,12-3.8c3.2,0,5.9,0.5,8.1,1.6c2.2,1,4.2,2.5,5.9,4.4h0.5l-1-8.6v-19.4h20.6v83.5h-16.8l-1.4-5.5h-0.5
			c-2.1,2-4.5,3.7-7.3,5S1230.8,2262.8,1228.1,2262.8z M1233.5,2246c1.7,0,3.2-0.3,4.5-0.9c1.3-0.6,2.5-1.7,3.7-3.4v-22.1
			c-1.2-1.1-2.5-1.9-3.8-2.3c-1.3-0.4-2.7-0.6-4.1-0.6c-1.7,0-3.3,0.5-4.7,1.4c-1.5,0.9-2.7,2.4-3.5,4.6c-0.9,2.1-1.3,4.9-1.3,8.5
			c0,5.4,0.8,9.2,2.5,11.5C1228.3,2244.9,1230.6,2246,1233.5,2246z"/>
		<path d="M1277,2261.4v-78h29c5.6,0,10.8,0.7,15.5,2.2c4.7,1.5,8.5,4.1,11.4,7.7c2.9,3.7,4.3,8.8,4.3,15.2c0,6.2-1.4,11.3-4.3,15.2
			c-2.9,3.9-6.7,6.8-11.4,8.6c-4.7,1.8-9.9,2.8-15.5,2.8h-8.4v26.2H1277z M1297.6,2218.9h7c4.1,0,7.2-0.9,9.3-2.6
			c2.1-1.8,3.2-4.3,3.2-7.7c0-3.4-1.1-5.7-3.2-7c-2.1-1.3-5.2-1.9-9.3-1.9h-7V2218.9z M1302.3,2229.8l13.9-13.7l25.3,45.2h-23
			L1302.3,2229.8z"/>
		<path d="M1381.6,2262.8c-6.3,0-12-1.2-17.1-3.7c-5.1-2.5-9.1-6.1-12.1-10.7c-3-4.7-4.4-10.3-4.4-17c0-6.6,1.5-12.2,4.5-16.9
			c3-4.7,6.9-8.3,11.7-10.8c4.8-2.5,9.9-3.8,15.2-3.8c6.3,0,11.6,1.3,15.8,3.9c4.2,2.6,7.4,6.1,9.5,10.5c2.1,4.4,3.2,9.3,3.2,14.6
			c0,1.8-0.1,3.5-0.3,5.1c-0.2,1.6-0.4,2.8-0.5,3.5h-43.6v-13.4h29.3l-2.9,3.6c0-4-0.8-7-2.4-9.1c-1.6-2.1-4.1-3.1-7.4-3.1
			c-2.6,0-4.9,0.6-6.7,1.7c-1.8,1.1-3.2,2.9-4.1,5.2c-1,2.4-1.4,5.3-1.4,8.9c0,3.8,0.6,6.8,1.9,9.1c1.2,2.3,3.1,4,5.5,5.1
			c2.4,1.1,5.5,1.6,9.2,1.6c2.4,0,4.7-0.3,7-0.9c2.3-0.6,4.7-1.5,7.4-2.7l6.7,12.2c-3.6,2.2-7.6,4-11.9,5.2
			C1389.4,2262.2,1385.4,2262.8,1381.6,2262.8z"/>
		<path d="M1421.7,2282.5v-81.1h16.8l1.4,5.5h0.5c2.3-2.1,4.9-3.8,7.9-5c2.9-1.3,5.9-1.9,8.9-1.9c4.9,0,9.1,1.3,12.6,3.8
			c3.5,2.5,6.3,6.1,8.2,10.6c2,4.6,2.9,9.9,2.9,16.1c0,6.9-1.2,12.7-3.7,17.6c-2.4,4.8-5.6,8.5-9.5,11c-3.9,2.5-8,3.8-12.4,3.8
			c-2.6,0-5-0.5-7.3-1.6c-2.3-1-4.4-2.5-6.3-4.4h-0.5l1,9.1v16.6H1421.7z M1450.5,2246c1.7,0,3.2-0.5,4.6-1.4c1.4-1,2.5-2.6,3.4-4.8
			c0.9-2.2,1.3-5.3,1.3-9.1c0-3.3-0.3-5.9-1-8c-0.7-2-1.7-3.5-2.9-4.5s-2.9-1.4-4.9-1.4c-1.6,0-3.1,0.3-4.4,1
			c-1.4,0.6-2.8,1.8-4.2,3.4v22.1c1.3,1,2.6,1.8,4,2.2C1447.7,2245.8,1449.1,2246,1450.5,2246z"/>
		<path d="M1525.6,2262.8c-6.3,0-12-1.2-17.1-3.7c-5.1-2.5-9.1-6.1-12.1-10.7c-3-4.7-4.4-10.3-4.4-17c0-6.6,1.5-12.2,4.5-16.9
			c3-4.7,6.9-8.3,11.7-10.8c4.8-2.5,9.9-3.8,15.2-3.8c6.3,0,11.6,1.3,15.8,3.9c4.2,2.6,7.4,6.1,9.5,10.5c2.1,4.4,3.2,9.3,3.2,14.6
			c0,1.8-0.1,3.5-0.3,5.1c-0.2,1.6-0.4,2.8-0.5,3.5h-43.6v-13.4h29.3l-2.9,3.6c0-4-0.8-7-2.4-9.1c-1.6-2.1-4.1-3.1-7.4-3.1
			c-2.6,0-4.9,0.6-6.7,1.7c-1.8,1.1-3.2,2.9-4.1,5.2c-1,2.4-1.4,5.3-1.4,8.9c0,3.8,0.6,6.8,1.9,9.1c1.2,2.3,3.1,4,5.5,5.1
			c2.4,1.1,5.5,1.6,9.2,1.6c2.4,0,4.7-0.3,7-0.9c2.3-0.6,4.7-1.5,7.4-2.7l6.7,12.2c-3.6,2.2-7.6,4-11.9,5.2
			C1533.4,2262.2,1529.4,2262.8,1525.6,2262.8z"/>
		<path d="M1583.9,2262.8c-4.2,0-7.7-0.9-10.6-2.6c-2.9-1.7-5.1-4-6.6-6.8c-1.5-2.8-2.3-5.8-2.3-9.1c0-6.7,2.9-11.9,8.7-15.4
			c5.8-3.6,15.5-5.7,29.2-6.4c-0.2-1.4-0.8-2.6-1.8-3.5c-1-0.9-2.3-1.6-3.9-2c-1.6-0.4-3.6-0.7-5.8-0.7c-1.7,0-3.4,0.2-5.2,0.5
			c-1.8,0.4-3.6,0.9-5.6,1.7c-2,0.8-4.1,1.7-6.5,2.8l-7.2-13.4c3-1.7,6.1-3.1,9.2-4.3c3.1-1.2,6.3-2.1,9.5-2.7
			c3.2-0.6,6.5-0.9,9.8-0.9c5.7,0,10.6,1,14.8,2.9c4.2,2,7.5,5,9.8,9.1c2.3,4.1,3.5,9.5,3.5,16v33.4h-16.8l-1.4-6.2h-0.5
			c-3,2.2-6.2,4-9.6,5.5C1591.3,2262.1,1587.7,2262.8,1583.9,2262.8z M1590.6,2247c2.4,0,4.6-0.5,6.5-1.4c1.9-0.9,3.7-2,5.3-3.2
			v-7.7c-4.9,0.2-8.6,0.6-11.3,1.3c-2.6,0.7-4.5,1.7-5.5,2.8c-1,1.2-1.5,2.4-1.5,3.8c0,0.9,0.2,1.7,0.7,2.3c0.5,0.7,1.2,1.2,2.2,1.5
			C1588,2246.8,1589.2,2247,1590.6,2247z"/>
		<path d="M1676.3,2262.8c-6.6,0-11.8-1.1-15.7-3.4c-3.9-2.2-6.8-5.4-8.5-9.4c-1.8-4-2.6-8.7-2.6-14.1v-18.5H1635v-15.4l15.4-0.7
			l2.6-18h17v18h23.8v16.1h-23.8v18.1c0,2.8,0.4,5,1.3,6.7c0.9,1.6,2.2,2.8,3.9,3.5c1.7,0.7,3.9,1,6.4,1c2.1,0,4-0.2,5.8-0.5
			c1.8-0.4,3.5-0.8,5.1-1.4l3.6,14.9c-2.6,0.7-5.6,1.4-8.9,2.1C1684.1,2262.5,1680.4,2262.8,1676.3,2262.8z"/>
	</g>
</g>
<path d="M355.5,1902.6H5.4c-8.5,0-15.4-6.9-15.4-15.4l0,0c0-8.5,6.9-15.4,15.4-15.4h350.1c8.5,0,15.4,6.9,15.4,15.4l0,0
	C371,1895.7,364.1,1902.6,355.5,1902.6z"/>
<path d="M202.5,2245.9v-709.6c0-8.5,6.9-15.4,15.4-15.4h0c8.5,0,15.4,6.9,15.4,15.4v709.6c0,8.5-6.9,15.4-15.4,15.4h0
	C209.4,2261.4,202.5,2254.4,202.5,2245.9z"/>
<path d="M355.5,2261.4H217.9c-8.5,0-15.4-6.9-15.4-15.4l0,0c0-8.5,6.9-15.4,15.4-15.4h137.6c8.5,0,15.4,6.9,15.4,15.4l0,0
	C371,2254.5,364.1,2261.4,355.5,2261.4z"/>
<path d="M355.5,1551.7H217.9c-8.5,0-15.4-6.9-15.4-15.4v0c0-8.5,6.9-15.4,15.4-15.4h137.6c8.5,0,15.4,6.9,15.4,15.4v0
	C371,1544.8,364.1,1551.7,355.5,1551.7z"/>
<path class="st0" d="M-89.8,3188.1h-642.3c-36.3,0-65.8-29.4-65.8-65.8v-83.1c0-36.3,29.4-65.8,65.8-65.8h642.3
	c36.3,0,65.8,29.4,65.8,65.8v83.1C-24,3158.7-53.5,3188.1-89.8,3188.1z"/>
<rect x="-731.6" y="3033.4" style="fill:none;" width="659.9" height="116.8"/>
<text transform="matrix(1 0 0 1 -689.6011 3116.9653)" style="font-family:'SourceCodePro-Black'; font-size:120px;">Movement</text>
<polygon style="fill:none;" points="-391.2,3165.3 -387.8,3165.3 -387.8,3165.3 -391.2,3165.3 "/>
<path class="st0" d="M1316.9,3005H929.1c-36.3,0-65.8-29.4-65.8-65.8v-83.1c0-36.3,29.4-65.8,65.8-65.8h387.8
	c36.3,0,65.8,29.4,65.8,65.8v83.1C1382.7,2975.6,1353.2,3005,1316.9,3005z"/>
<rect x="863.3" y="2850.3" style="fill:none;" width="519.3" height="116.8"/>
<text transform="matrix(1 0 0 1 978.9998 2933.8442)" style="font-family:'SourceCodePro-Black'; font-size:120px;">Down</text>
<polygon style="fill:none;" points="1142.8,2982.2 1146.2,2982.2 1146.2,2982.2 1142.8,2982.2 "/>
<path class="st0" d="M1276.7,2655.9H967.2c-36.3,0-65.8-29.4-65.8-65.8v-83.1c0-36.3,29.4-65.8,65.8-65.8h309.5
	c36.3,0,65.8,29.4,65.8,65.8v83.1C1342.5,2626.5,1313,2655.9,1276.7,2655.9z"/>
<rect x="873" y="2501.2" style="fill:none;" width="519.3" height="116.8"/>
<text transform="matrix(1 0 0 1 1060.6366 2584.7498)" style="font-family:'SourceCodePro-Black'; font-size:120px;">Up</text>
<polygon style="fill:none;" points="1152.4,2633.1 1155.8,2633.1 1155.8,2633.1 1152.4,2633.1 "/>
<path class="st0" d="M1358.3,3358.1H885.5c-36.3,0-65.8-29.4-65.8-65.8v-83.1c0-36.3,29.4-65.8,65.8-65.8h472.8
	c36.3,0,65.8,29.4,65.8,65.8v83.1C1424.1,3328.7,1394.7,3358.1,1358.3,3358.1z"/>
<rect x="869.6" y="3203.4" style="fill:none;" width="519.3" height="116.8"/>
<text transform="matrix(1 0 0 1 949.2369 3286.9395)" style="font-family:'SourceCodePro-Black'; font-size:120px;">Right</text>
<polygon style="fill:none;" points="1149,3335.3 1152.4,3335.3 1152.4,3335.3 1149,3335.3 "/>
<path class="st0" d="M1325.5,3690.7H918.4c-36.3,0-65.8-29.4-65.8-65.8v-83.1c0-36.3,29.4-65.8,65.8-65.8h407.1
	c36.3,0,65.8,29.4,65.8,65.8v83.1C1391.2,3661.2,1361.8,3690.7,1325.5,3690.7z"/>
<rect x="871.9" y="3536" style="fill:none;" width="519.3" height="116.8"/>
<text transform="matrix(1 0 0 1 987.5653 3619.522)" style="font-family:'SourceCodePro-Black'; font-size:120px;">Left</text>
<polygon style="fill:none;" points="1151.3,3667.9 1154.7,3667.9 1154.7,3667.9 1151.3,3667.9 "/>
<path d="M209.7,3601.6V2560.1c0-7,5.7-12.7,12.7-12.7h5.4c7,0,12.7,5.7,12.7,12.7v1041.5c0,7-5.7,12.7-12.7,12.7h-5.4
	C215.4,3614.3,209.7,3608.6,209.7,3601.6z"/>
<path d="M681.5,2577.4H225.1c-8.5,0-15.4-6.9-15.4-15.4l0,0c0-8.5,6.9-15.4,15.4-15.4h456.4c8.5,0,15.4,6.9,15.4,15.4l0,0
	C697,2570.5,690.1,2577.4,681.5,2577.4z"/>
<path d="M681.5,2922.1H226.2c-8.5,0-15.4-6.9-15.4-15.4v0c0-8.5,6.9-15.4,15.4-15.4h455.4c8.5,0,15.4,6.9,15.4,15.4v0
	C697,2915.2,690.1,2922.1,681.5,2922.1z"/>
<path d="M681.5,3283.2H226.2c-8.5,0-15.4-6.9-15.4-15.4l0,0c0-8.5,6.9-15.4,15.4-15.4h455.4c8.5,0,15.4,6.9,15.4,15.4l0,0
	C697,3276.3,690.1,3283.2,681.5,3283.2z"/>
<path d="M681.5,3614.6H226.2c-8.5,0-15.4-6.9-15.4-15.4l0,0c0-8.5,6.9-15.4,15.4-15.4h455.4c8.5,0,15.4,6.9,15.4,15.4l0,0
	C697,3607.7,690.1,3614.6,681.5,3614.6z"/>
<path d="M226.5,3104.9H88.9c-8.5,0-15.4-6.9-15.4-15.4l0,0c0-8.5,6.9-15.4,15.4-15.4h137.6c8.5,0,15.4,6.9,15.4,15.4l0,0
	C242,3098,235,3104.9,226.5,3104.9z"/>
<path class="st0" d="M-89.8,4373.6h-642.3c-36.3,0-65.8-29.4-65.8-65.8v-83.1c0-36.3,29.4-65.8,65.8-65.8h642.3
	c36.3,0,65.8,29.4,65.8,65.8v83.1C-24,4344.2-53.5,4373.6-89.8,4373.6z"/>
<rect x="-731.6" y="4218.9" style="fill:none;" width="659.9" height="116.8"/>
<text transform="matrix(1 0 0 1 -725.6006 4302.4419)" style="font-family:'SourceCodePro-Black'; font-size:120px;">Variables</text>
<polygon style="fill:none;" points="-391.2,4350.8 -387.8,4350.8 -387.8,4350.8 -391.2,4350.8 "/>
<path d="M519.4,4297.2H89.5c-8.5,0-15.4-6.9-15.4-15.4l0,0c0-8.5,6.9-15.4,15.4-15.4h429.9c8.5,0,15.4,6.9,15.4,15.4l0,0
	C534.8,4290.3,527.9,4297.2,519.4,4297.2z"/>
<path d="M213.4,4640.5v-709.6c0-8.5,6.9-15.4,15.4-15.4h0c8.5,0,15.4,6.9,15.4,15.4v709.6c0,8.5-6.9,15.4-15.4,15.4h0
	C220.4,4656,213.4,4649.1,213.4,4640.5z"/>
<path d="M519.4,4656H228.9c-8.5,0-15.4-6.9-15.4-15.4v0c0-8.5,6.9-15.4,15.4-15.4h290.5c8.5,0,15.4,6.9,15.4,15.4v0
	C534.8,4649.1,527.9,4656,519.4,4656z"/>
<path d="M519.4,3938.3H228.9c-8.5,0-15.4-6.9-15.4-15.4l0,0c0-8.5,6.9-15.4,15.4-15.4h290.5c8.5,0,15.4,6.9,15.4,15.4l0,0
	C534.8,3931.4,527.9,3938.3,519.4,3938.3z"/>
<path class="st0" d="M1446.6,4755.7H804.2c-36.3,0-65.8-29.4-65.8-65.8v-83.1c0-36.3,29.4-65.8,65.8-65.8h642.3
	c36.3,0,65.8,29.4,65.8,65.8v83.1C1512.3,4726.3,1482.9,4755.7,1446.6,4755.7z"/>
<rect x="804.8" y="4601" style="fill:none;" width="659.9" height="116.8"/>
<text transform="matrix(1 0 0 1 846.7662 4684.5327)" style="font-family:'SourceCodePro-Black'; font-size:120px;">Variable</text>
<polygon style="fill:none;" points="1145.2,4732.9 1148.6,4732.9 1148.6,4732.9 1145.2,4732.9 "/>
<path class="st0" d="M1316.9,4046.1H929.1c-36.3,0-65.8-29.4-65.8-65.8v-83.1c0-36.3,29.4-65.8,65.8-65.8h387.8
	c36.3,0,65.8,29.4,65.8,65.8v83.1C1382.7,4016.6,1353.2,4046.1,1316.9,4046.1z"/>
<rect x="888.6" y="3891.4" style="fill:none;" width="473.7" height="116.8"/>
<text transform="matrix(1 0 0 1 1017.4088 3974.9233)" style="font-family:'SourceCodePro-Black'; font-size:120px;">Set</text>
<polygon style="fill:none;" points="1229,4023.3 1232.4,4023.3 1232.4,4023.3 1229,4023.3 "/>
<path class="st0" d="M1491.4,4389.5H754.6c-36.3,0-65.8-29.4-65.8-65.8v-83.1c0-36.3,29.4-65.8,65.8-65.8h736.7
	c36.3,0,65.8,29.4,65.8,65.8v83.1C1557.1,4360,1527.7,4389.5,1491.4,4389.5z"/>
<rect x="730.6" y="4234.8" style="fill:none;" width="801.6" height="116.8"/>
<text transform="matrix(1 0 0 1 771.3877 4318.3198)" style="font-family:'SourceCodePro-Black'; font-size:120px;">Assignment</text>
<polygon style="fill:none;" points="1071,4366.7 1074.4,4366.7 1074.4,4366.7 1071,4366.7 "/>
<path class="st0" d="M-89.8,5141.7h-642.3c-36.3,0-65.8-29.4-65.8-65.8v-83.1c0-36.3,29.4-65.8,65.8-65.8h642.3
	c36.3,0,65.8,29.4,65.8,65.8v83.1C-24,5112.2-53.5,5141.7-89.8,5141.7z"/>
<rect x="-731.6" y="4987" style="fill:none;" width="659.9" height="116.8"/>
<text transform="matrix(1 0 0 1 -653.6016 5070.5093)" style="font-family:'SourceCodePro-Black'; font-size:120px;">Unknown</text>
<polygon style="fill:none;" points="-391.2,5118.9 -387.8,5118.9 -387.8,5118.9 -391.2,5118.9 "/>
<path d="M519.4,5057.4H86c-8.5,0-15.4-6.9-15.4-15.4l0,0c0-8.5,6.9-15.4,15.4-15.4h433.4c8.5,0,15.4,6.9,15.4,15.4l0,0
	C534.8,5050.5,527.9,5057.4,519.4,5057.4z"/>
<path class="st0" d="M1441.4,5130.7H799.1c-36.3,0-65.8-29.4-65.8-65.8v-83.1c0-36.3,29.4-65.8,65.8-65.8h642.3
	c36.3,0,65.8,29.4,65.8,65.8v83.1C1507.2,5101.2,1477.7,5130.7,1441.4,5130.7z"/>
<rect x="799.6" y="4976" style="fill:none;" width="659.9" height="116.8"/>
<text transform="matrix(1 0 0 1 877.5833 5059.5098)" style="font-family:'SourceCodePro-Black'; font-size:120px;">Handler</text>
<polygon style="fill:none;" points="1140,5107.9 1143.4,5107.9 1143.4,5107.9 1140,5107.9 "/>
<path d="M-1104.4,5029.3V1850.8c0-7,5.7-12.7,12.7-12.7h5.4c7,0,12.7,5.7,12.7,12.7v3178.5c0,7-5.7,12.7-12.7,12.7h-5.4
	C-1098.8,5042-1104.4,5036.3-1104.4,5029.3z"/>
<path d="M-886.6,4281.7H-1089c-8.5,0-15.4-6.9-15.4-15.4l0,0c0-8.5,6.9-15.4,15.4-15.4h202.4c8.5,0,15.4,6.9,15.4,15.4l0,0
	C-871.2,4274.8-878.1,4281.7-886.6,4281.7z"/>
<path d="M-886.6,5042H-1089c-8.5,0-15.4-6.9-15.4-15.4l0,0c0-8.5,6.9-15.4,15.4-15.4h202.4c8.5,0,15.4,6.9,15.4,15.4l0,0
	C-871.2,5035.1-878.1,5042-886.6,5042z"/>
<path d="M-886.6,1868.9H-1089c-8.5,0-15.4-6.9-15.4-15.4l0,0c0-8.5,6.9-15.4,15.4-15.4h202.4c8.5,0,15.4,6.9,15.4,15.4l0,0
	C-871.2,1862-878.1,1868.9-886.6,1868.9z"/>
<path d="M-886.6,3096.3H-1089c-8.5,0-15.4-6.9-15.4-15.4l0,0c0-8.5,6.9-15.4,15.4-15.4h202.4c8.5,0,15.4,6.9,15.4,15.4l0,0
	C-871.2,3089.4-878.1,3096.3-886.6,3096.3z"/>
<path d="M-1089,3455.5h-202.4c-8.5,0-15.4-6.9-15.4-15.4l0,0c0-8.5,6.9-15.4,15.4-15.4h202.4c8.5,0,15.4,6.9,15.4,15.4l0,0
	C-1073.6,3448.5-1080.5,3455.5-1089,3455.5z"/>
<path d="M2017.9,6213.1V1469.2c0-7,5.7-12.7,12.7-12.7h4.4c7,0,12.7,5.7,12.7,12.7v4743.9c0,7-5.7,12.7-12.7,12.7h-4.4
	C2023.6,6225.8,2017.9,6220.1,2017.9,6213.1z"/>
<path class="st0" d="M1441.4,5505.7H799.1c-36.3,0-65.8-29.4-65.8-65.8v-83.1c0-36.3,29.4-65.8,65.8-65.8h642.3
	c36.3,0,65.8,29.4,65.8,65.8v83.1C1507.2,5476.2,1477.7,5505.7,1441.4,5505.7z"/>
<rect x="799.6" y="5351" style="fill:none;" width="659.9" height="116.8"/>
<text transform="matrix(1 0 0 1 913.5828 5434.4873)" style="font-family:'SourceCodePro-Black'; font-size:120px;">Logger</text>
<polygon style="fill:none;" points="1140,5482.8 1143.4,5482.8 1143.4,5482.8 1140,5482.8 "/>
<path d="M2014.2,2577.4h-456.4c-8.5,0-15.4-6.9-15.4-15.4l0,0c0-8.5,6.9-15.4,15.4-15.4h456.4c8.5,0,15.4,6.9,15.4,15.4l0,0
	C2029.7,2570.5,2022.8,2577.4,2014.2,2577.4z"/>
<path d="M2033.3,2913.1H1578c-8.5,0-15.4-6.9-15.4-15.4l0,0c0-8.5,6.9-15.4,15.4-15.4h455.4c8.5,0,15.4,6.9,15.4,15.4l0,0
	C2048.8,2906.2,2041.9,2913.1,2033.3,2913.1z"/>
<path d="M2032.3,3248.9h-455.4c-8.5,0-15.4-6.9-15.4-15.4l0,0c0-8.5,6.9-15.4,15.4-15.4h455.4c8.5,0,15.4,6.9,15.4,15.4l0,0
	C2047.7,3242,2040.8,3248.9,2032.3,3248.9z"/>
<path d="M2033.3,3578.6H1578c-8.5,0-15.4-6.9-15.4-15.4l0,0c0-8.5,6.9-15.4,15.4-15.4h455.4c8.5,0,15.4,6.9,15.4,15.4l0,0
	C2048.8,3571.7,2041.9,3578.6,2033.3,3578.6z"/>
<path d="M2032.3,3930.9h-290.5c-8.5,0-15.4-6.9-15.4-15.4l0,0c0-8.5,6.9-15.4,15.4-15.4h290.5c8.5,0,15.4,6.9,15.4,15.4l0,0
	C2047.7,3924,2040.8,3930.9,2032.3,3930.9z"/>
<path d="M2032.3,4281.7h-290.5c-8.5,0-15.4-6.9-15.4-15.4l0,0c0-8.5,6.9-15.4,15.4-15.4h290.5c8.5,0,15.4,6.9,15.4,15.4l0,0
	C2047.7,4274.8,2040.8,4281.7,2032.3,4281.7z"/>
<path d="M2032.3,4640.6h-290.5c-8.5,0-15.4-6.9-15.4-15.4l0,0c0-8.5,6.9-15.4,15.4-15.4h290.5c8.5,0,15.4,6.9,15.4,15.4l0,0
	C2047.7,4633.7,2040.8,4640.6,2032.3,4640.6z"/>
<path d="M2030.3,5049.8h-317.8c-8.5,0-15.4-6.9-15.4-15.4l0,0c0-8.5,6.9-15.4,15.4-15.4h317.8c8.5,0,15.4,6.9,15.4,15.4l0,0
	C2045.7,5042.9,2038.8,5049.8,2030.3,5049.8z"/>
<path d="M2030.3,5429.8h-317.8c-8.5,0-15.4-6.9-15.4-15.4l0,0c0-8.5,6.9-15.4,15.4-15.4h317.8c8.5,0,15.4,6.9,15.4,15.4l0,0
	C2045.7,5422.9,2038.8,5429.8,2030.3,5429.8z"/>
<path d="M2014.2,2246h-137.6c-8.5,0-15.4-6.9-15.4-15.4l0,0c0-8.5,6.9-15.4,15.4-15.4h137.6c8.5,0,15.4,6.9,15.4,15.4l0,0
	C2029.7,2239.1,2022.8,2246,2014.2,2246z"/>
<path d="M2033.3,1887.1h-137.6c-8.5,0-15.4-6.9-15.4-15.4v0c0-8.5,6.9-15.4,15.4-15.4h137.6c8.5,0,15.4,6.9,15.4,15.4v0
	C2048.8,1880.2,2041.9,1887.1,2033.3,1887.1z"/>
<path d="M2033.3,1486.9h-137.6c-8.5,0-15.4-6.9-15.4-15.4l0,0c0-8.5,6.9-15.4,15.4-15.4h137.6c8.5,0,15.4,6.9,15.4,15.4l0,0
	C2048.8,1480,2041.9,1486.9,2033.3,1486.9z"/>
<path d="M2216.4,3783.2h-176.2c-8.5,0-15.4-6.9-15.4-15.4l0,0c0-8.5,6.9-15.4,15.4-15.4h176.2c8.5,0,15.4,6.9,15.4,15.4l0,0
	C2231.8,3776.3,2224.9,3783.2,2216.4,3783.2z"/>
<path class="st0" d="M3112.9,3875.1h-757.1c-36.3,0-65.8-29.4-65.8-65.8v-83.1c0-36.3,29.4-65.8,65.8-65.8h757.1
	c36.3,0,65.8,29.4,65.8,65.8v83.1C3178.7,3845.7,3149.2,3875.1,3112.9,3875.1z"/>
<g>
	<g>
		<path d="M2356,3798.4v-16.8h17.3v-42.4H2356v-16.8h54.8v16.8h-17.3v42.4h17.3v16.8H2356z"/>
		<path d="M2425.9,3798.4v-58.5h16.4l1.4,7h0.5c2.3-2.3,5.1-4.2,8.3-5.9c3.2-1.7,6.9-2.5,11.2-2.5c6.5,0,11.2,2.2,14.2,6.5
			c3,4.3,4.4,10.1,4.4,17.4v36h-20.1v-33.5c0-3.3-0.5-5.7-1.5-7.1c-1-1.5-2.7-2.2-5.3-2.2c-1.9,0-3.5,0.4-4.9,1.2
			c-1.4,0.8-2.9,1.9-4.4,3.3v38.4H2425.9z"/>
		<path d="M2533.8,3799.8c-6.4,0-11.5-1.1-15.3-3.3c-3.8-2.2-6.6-5.2-8.3-9.2c-1.7-3.9-2.6-8.5-2.6-13.7v-18h-14v-15l15-0.7
			l2.6-17.5h16.6v17.5h23.2v15.7h-23.2v17.7c0,2.7,0.4,4.9,1.3,6.5c0.9,1.6,2.1,2.7,3.8,3.4c1.7,0.7,3.8,1,6.3,1
			c2,0,3.9-0.2,5.7-0.5c1.8-0.3,3.4-0.8,5-1.3l3.5,14.5c-2.6,0.7-5.5,1.4-8.7,2C2541.4,3799.4,2537.8,3799.8,2533.8,3799.8z"/>
		<path d="M2597.5,3799.8c-6.2,0-11.7-1.2-16.7-3.6c-5-2.4-8.9-5.9-11.8-10.5c-2.9-4.6-4.3-10.1-4.3-16.6c0-6.4,1.5-11.9,4.4-16.4
			c2.9-4.6,6.7-8.1,11.4-10.5c4.7-2.5,9.6-3.7,14.9-3.7c6.2,0,11.3,1.3,15.4,3.8c4.1,2.5,7.2,5.9,9.3,10.2c2.1,4.3,3.1,9,3.1,14.3
			c0,1.7-0.1,3.4-0.3,5c-0.2,1.6-0.4,2.8-0.5,3.5h-42.5v-13.1h28.5l-2.8,3.5c0-3.9-0.8-6.9-2.3-8.9c-1.6-2-4-3-7.3-3
			c-2.6,0-4.7,0.5-6.5,1.6c-1.8,1.1-3.1,2.8-4,5.1c-0.9,2.3-1.4,5.2-1.4,8.7c0,3.7,0.6,6.6,1.8,8.9c1.2,2.3,3,3.9,5.4,5
			c2.4,1.1,5.4,1.6,9,1.6c2.3,0,4.6-0.3,6.8-0.9c2.2-0.6,4.6-1.5,7.2-2.6l6.6,11.9c-3.5,2.2-7.4,3.9-11.6,5
			C2605.1,3799.2,2601.1,3799.8,2597.5,3799.8z"/>
		<path d="M2641.2,3798.4v-58.5h16.5l1.5,12.4h0.5c2.8-4.8,6.2-8.3,10.2-10.5c4-2.2,8.2-3.3,12.6-3.3c2.7,0,4.9,0.2,6.4,0.6
			c1.5,0.4,3.1,1,4.7,1.7l-4,16.8c-1.7-0.5-3.3-1-4.8-1.2c-1.5-0.3-3.3-0.4-5.4-0.4c-3.4,0-6.7,1-9.9,3c-3.3,2-6,5.4-8.2,10.4v29
			H2641.2z"/>
		<path d="M2706.7,3819v-79.1h16.4l1.4,5.4h0.5c2.3-2,4.8-3.7,7.7-4.9c2.8-1.2,5.8-1.9,8.7-1.9c4.8,0,8.9,1.2,12.3,3.7
			c3.4,2.5,6.1,5.9,8,10.4c1.9,4.4,2.9,9.7,2.9,15.7c0,6.7-1.2,12.4-3.6,17.1c-2.4,4.7-5.5,8.3-9.2,10.8c-3.8,2.5-7.8,3.7-12.1,3.7
			c-2.5,0-4.9-0.5-7.1-1.5c-2.2-1-4.3-2.5-6.1-4.3h-0.5l0.9,8.9v16.1H2706.7z M2734.8,3783.4c1.6,0,3.1-0.5,4.5-1.4
			c1.4-0.9,2.5-2.5,3.3-4.7c0.9-2.2,1.3-5.1,1.3-8.9c0-3.2-0.3-5.8-1-7.8c-0.7-2-1.6-3.5-2.9-4.4c-1.2-0.9-2.8-1.4-4.8-1.4
			c-1.6,0-3,0.3-4.3,0.9c-1.3,0.6-2.7,1.7-4.1,3.3v21.5c1.2,1,2.6,1.7,3.9,2.2C2732.1,3783.2,2733.5,3783.4,2734.8,3783.4z"/>
		<path d="M2781.6,3798.4v-58.5h16.5l1.5,12.4h0.5c2.8-4.8,6.2-8.3,10.2-10.5c4-2.2,8.2-3.3,12.6-3.3c2.7,0,4.9,0.2,6.4,0.6
			c1.5,0.4,3.1,1,4.7,1.7l-4,16.8c-1.7-0.5-3.3-1-4.8-1.2c-1.5-0.3-3.3-0.4-5.4-0.4c-3.4,0-6.7,1-9.9,3c-3.3,2-6,5.4-8.2,10.4v29
			H2781.6z"/>
		<path d="M2878.3,3799.8c-6.2,0-11.7-1.2-16.7-3.6c-5-2.4-8.9-5.9-11.8-10.5c-2.9-4.6-4.3-10.1-4.3-16.6c0-6.4,1.5-11.9,4.4-16.4
			c2.9-4.6,6.7-8.1,11.4-10.5c4.7-2.5,9.6-3.7,14.9-3.7c6.2,0,11.3,1.3,15.4,3.8c4.1,2.5,7.2,5.9,9.3,10.2c2.1,4.3,3.1,9,3.1,14.3
			c0,1.7-0.1,3.4-0.3,5c-0.2,1.6-0.4,2.8-0.5,3.5h-42.5v-13.1h28.5l-2.8,3.5c0-3.9-0.8-6.9-2.3-8.9c-1.6-2-4-3-7.3-3
			c-2.6,0-4.7,0.5-6.5,1.6c-1.8,1.1-3.1,2.8-4,5.1c-0.9,2.3-1.4,5.2-1.4,8.7c0,3.7,0.6,6.6,1.8,8.9c1.2,2.3,3,3.9,5.4,5
			c2.4,1.1,5.4,1.6,9,1.6c2.3,0,4.6-0.3,6.8-0.9c2.2-0.6,4.6-1.5,7.2-2.6l6.6,11.9c-3.5,2.2-7.4,3.9-11.6,5
			C2885.9,3799.2,2881.9,3799.8,2878.3,3799.8z"/>
		<path d="M2955,3799.8c-6.4,0-11.5-1.1-15.3-3.3c-3.8-2.2-6.6-5.2-8.3-9.2c-1.7-3.9-2.6-8.5-2.6-13.7v-18h-14v-15l15-0.7l2.6-17.5
			h16.6v17.5h23.2v15.7h-23.2v17.7c0,2.7,0.4,4.9,1.3,6.5c0.9,1.6,2.1,2.7,3.8,3.4c1.7,0.7,3.8,1,6.3,1c2,0,3.9-0.2,5.7-0.5
			c1.8-0.3,3.4-0.8,5-1.3l3.5,14.5c-2.6,0.7-5.5,1.4-8.7,2C2962.6,3799.4,2959,3799.8,2955,3799.8z"/>
		<path d="M3018.7,3799.8c-6.2,0-11.7-1.2-16.7-3.6c-5-2.4-8.9-5.9-11.8-10.5c-2.9-4.6-4.3-10.1-4.3-16.6c0-6.4,1.5-11.9,4.4-16.4
			c2.9-4.6,6.7-8.1,11.4-10.5c4.7-2.5,9.6-3.7,14.9-3.7c6.2,0,11.3,1.3,15.4,3.8c4.1,2.5,7.2,5.9,9.3,10.2c2.1,4.3,3.1,9,3.1,14.3
			c0,1.7-0.1,3.4-0.3,5c-0.2,1.6-0.4,2.8-0.5,3.5h-42.5v-13.1h28.5l-2.8,3.5c0-3.9-0.8-6.9-2.3-8.9c-1.6-2-4-3-7.3-3
			c-2.6,0-4.7,0.5-6.5,1.6c-1.8,1.1-3.1,2.8-4,5.1c-0.9,2.3-1.4,5.2-1.4,8.7c0,3.7,0.6,6.6,1.8,8.9c1.2,2.3,3,3.9,5.4,5
			c2.4,1.1,5.4,1.6,9,1.6c2.3,0,4.6-0.3,6.8-0.9c2.2-0.6,4.6-1.5,7.2-2.6l6.6,11.9c-3.5,2.2-7.4,3.9-11.6,5
			C3026.3,3799.2,3022.3,3799.8,3018.7,3799.8z"/>
		<path d="M3062.4,3798.4v-58.5h16.5l1.5,12.4h0.5c2.8-4.8,6.2-8.3,10.2-10.5c4-2.2,8.2-3.3,12.6-3.3c2.7,0,4.9,0.2,6.4,0.6
			c1.5,0.4,3.1,1,4.7,1.7l-4,16.8c-1.7-0.5-3.3-1-4.8-1.2c-1.5-0.3-3.3-0.4-5.4-0.4c-3.4,0-6.7,1-9.9,3c-3.3,2-6,5.4-8.2,10.4v29
			H3062.4z"/>
	</g>
</g>
<polygon style="fill:none;" points="2934.6,3859.8 2938,3859.8 2938,3859.8 2934.6,3859.8 "/>
<path class="st0" d="M5303.2,4063.5h-712.4c-36.3,0-65.8-29.4-65.8-65.8v-83.1c0-36.3,29.4-65.8,65.8-65.8h712.4
	c36.3,0,65.8,29.4,65.8,65.8v83.1C5369,4034.1,5339.6,4063.5,5303.2,4063.5z"/>
<rect x="4509.3" y="3908.8" style="fill:none;" width="881.4" height="116.8"/>
<text transform="matrix(1 0 0 1 4589.998 3992.3669)" style="font-family:'SourceCodePro-Black'; font-size:120px;">CodeEditor</text>
<polygon style="fill:none;" points="4854.8,4040.7 4858.2,4040.7 4858.2,4040.7 4854.8,4040.7 "/>
<path class="st0" d="M5182.3,3358.2h-480.7c-36.3,0-65.8-29.4-65.8-65.8v-83.1c0-36.3,29.4-65.8,65.8-65.8h480.7
	c36.3,0,65.8,29.4,65.8,65.8v83.1C5248.1,3328.8,5218.6,3358.2,5182.3,3358.2z"/>
<rect x="4620" y="3203.5" style="fill:none;" width="659.9" height="116.8"/>
<text transform="matrix(1 0 0 1 4769.9966 3287.0288)" style="font-family:'SourceCodePro-Black'; font-size:120px;">Tools</text>
<polygon style="fill:none;" points="4960.4,3335.4 4963.8,3335.4 4963.8,3335.4 4960.4,3335.4 "/>
<path class="st0" d="M5191.7,4400h-467.3c-36.3,0-65.8-29.4-65.8-65.8v-83.1c0-36.3,29.4-65.8,65.8-65.8h467.3
	c36.3,0,65.8,29.4,65.8,65.8v83.1C5257.4,4370.6,5228,4400,5191.7,4400z"/>
<rect x="4638.2" y="4245.3" style="fill:none;" width="659.9" height="116.8"/>
<text transform="matrix(1 0 0 1 4788.1675 4328.8604)" style="font-family:'SourceCodePro-Black'; font-size:120px;">Field</text>
<polygon style="fill:none;" points="4978.6,4377.2 4982,4377.2 4982,4377.2 4978.6,4377.2 "/>
<path class="st0" d="M1378.9,5909.8H876.6c-36.3,0-65.8-29.4-65.8-65.8v-83.1c0-36.3,29.4-65.8,65.8-65.8h502.3
	c36.3,0,65.8,29.4,65.8,65.8v83.1C1444.7,5880.3,1415.2,5909.8,1378.9,5909.8z"/>
<rect x="810.8" y="5755.1" style="fill:none;" width="659.9" height="116.8"/>
<text transform="matrix(1 0 0 1 924.7399 5838.5996)" style="font-family:'SourceCodePro-Black'; font-size:120px;">Player</text>
<polygon style="fill:none;" points="1151.2,5886.9 1154.6,5886.9 1154.6,5886.9 1151.2,5886.9 "/>
<path class="st0" d="M1371.8,6293.5H873.4c-36.3,0-65.8-29.4-65.8-65.8v-83.1c0-36.3,29.4-65.8,65.8-65.8h498.4
	c36.3,0,65.8,29.4,65.8,65.8v83.1C1437.6,6264.1,1408.1,6293.5,1371.8,6293.5z"/>
<rect x="810.8" y="6138.8" style="fill:none;" width="659.9" height="116.8"/>
<text transform="matrix(1 0 0 1 960.7394 6222.3398)" style="font-family:'SourceCodePro-Black'; font-size:120px;">Field</text>
<polygon style="fill:none;" points="1151.2,6270.7 1154.6,6270.7 1154.6,6270.7 1151.2,6270.7 "/>
<path d="M2030.3,5828.9h-377.5c-8.5,0-15.4-6.9-15.4-15.4l0,0c0-8.5,6.9-15.4,15.4-15.4h377.5c8.5,0,15.4,6.9,15.4,15.4l0,0
	C2045.7,5822,2038.8,5828.9,2030.3,5828.9z"/>
<path d="M2032.3,6226.1H1646c-8.5,0-15.4-6.9-15.4-15.4l0,0c0-8.5,6.9-15.4,15.4-15.4h386.3c8.5,0,15.4,6.9,15.4,15.4l0,0
	C2047.7,6219.2,2040.8,6226.1,2032.3,6226.1z"/>
<path d="M3442.1,3790.8h-194.9c-8.5,0-15.4-6.9-15.4-15.4l0,0c0-8.5,6.9-15.4,15.4-15.4h194.9c8.5,0,15.4,6.9,15.4,15.4l0,0
	C3457.6,3783.9,3450.7,3790.8,3442.1,3790.8z"/>
<path d="M3493.1,3769.4l-54.4-31.4c-4.6-2.6-10.3,0.7-10.3,5.9v62.8c0,5.3,5.7,8.6,10.3,5.9l54.4-31.4
	C3497.7,3778.6,3497.7,3772,3493.1,3769.4z"/>
<path class="st0" d="M3956,3879.1h-312.8c-36.3,0-65.8-29.4-65.8-65.8v-83.1c0-36.3,29.4-65.8,65.8-65.8H3956
	c36.3,0,65.8,29.4,65.8,65.8v83.1C4021.8,3849.7,3992.3,3879.1,3956,3879.1z"/>
<g>
	<g>
		<path d="M3734.1,3803.8c-6.5,0-12.4-1.4-17.8-4.3c-5.4-2.8-9.8-7.2-13-12.9c-3.2-5.8-4.9-13-4.9-21.6c0-8.6,1.6-15.9,4.9-21.8
			c3.2-6,7.6-10.5,13-13.6c5.4-3.1,11.4-4.6,18-4.6c5.1,0,9.6,1,13.3,3c3.7,2,6.9,4.3,9.4,6.8l-11,12.4c-1.6-1.6-3.2-2.8-5-3.6
			c-1.8-0.9-4-1.3-6.7-1.3c-2.7,0-5.2,0.9-7.5,2.6c-2.3,1.8-4.1,4.3-5.5,7.5c-1.4,3.3-2,7.2-2,11.8c0,4.8,0.6,8.8,1.8,12.1
			c1.2,3.3,3,5.8,5.4,7.5c2.4,1.7,5.4,2.6,9,2.6c0.9,0,1.9-0.1,2.9-0.4c1-0.2,1.7-0.6,2.3-1.1v-10.5h-9.5v-16.4h27.4v36.3
			c-2.6,2.3-6,4.5-10.4,6.4C3743.6,3802.8,3739,3803.8,3734.1,3803.8z"/>
		<path d="M3799.3,3803.8c-5,0-9.3-0.7-12.9-2.2c-3.6-1.4-6.5-3.5-8.8-6.2c-2.3-2.7-4-5.9-5.1-9.7c-1.1-3.8-1.7-8.1-1.7-12.8v-46.6
			h20.1v48.9c0,2.2,0.3,4.1,0.8,5.8c0.5,1.7,1.4,3,2.6,4c1.2,1,2.9,1.5,5,1.5c2.2,0,3.9-0.5,5.1-1.5c1.2-1,2.1-2.3,2.7-4
			c0.5-1.7,0.8-3.6,0.8-5.8v-48.9h19.4v46.6c0,4.8-0.5,9-1.6,12.8c-1.1,3.8-2.7,7-5,9.7c-2.3,2.7-5.2,4.8-8.7,6.2
			C3808.6,3803.1,3804.3,3803.8,3799.3,3803.8z"/>
		<path d="M3841.9,3802.4v-16.8h17.3v-42.4h-17.3v-16.8h54.8v16.8h-17.3v42.4h17.3v16.8H3841.9z"/>
	</g>
</g>
<path d="M4230.9,4289V3247.5c0-7,5.7-12.7,12.7-12.7h5.4c7,0,12.7,5.7,12.7,12.7V4289c0,7-5.7,12.7-12.7,12.7h-5.4
	C4236.6,4301.7,4230.9,4296,4230.9,4289z"/>
<path d="M4422.3,3264.8h-176c-8.5,0-15.4-6.9-15.4-15.4l0,0c0-8.5,6.9-15.4,15.4-15.4h176c8.5,0,15.4,6.9,15.4,15.4l0,0
	C4437.7,3257.9,4430.8,3264.8,4422.3,3264.8z"/>
<path d="M4422.3,3609.5h-175.5c-8.5,0-15.4-6.9-15.4-15.4l0,0c0-8.5,6.9-15.4,15.4-15.4h175.5c8.5,0,15.4,6.9,15.4,15.4l0,0
	C4437.7,3602.6,4430.8,3609.5,4422.3,3609.5z"/>
<path d="M4422.3,3970.6h-175.5c-8.5,0-15.4-6.9-15.4-15.4l0,0c0-8.5,6.9-15.4,15.4-15.4h175.5c8.5,0,15.4,6.9,15.4,15.4l0,0
	C4437.7,3963.7,4430.8,3970.6,4422.3,3970.6z"/>
<path d="M4422.3,4302h-175.5c-8.5,0-15.4-6.9-15.4-15.4l0,0c0-8.5,6.9-15.4,15.4-15.4h175.5c8.5,0,15.4,6.9,15.4,15.4l0,0
	C4437.7,4295.1,4430.8,4302,4422.3,4302z"/>
<path d="M4247.7,3792.3h-137.6c-8.5,0-15.4-6.9-15.4-15.4l0,0c0-8.5,6.9-15.4,15.4-15.4h137.6c8.5,0,15.4,6.9,15.4,15.4l0,0
	C4263.2,3785.4,4256.2,3792.3,4247.7,3792.3z"/>
<path class="st1" d="M3379.5-456.4c-18.1-10.5-38.3-17.9-60.1-21.6c-97.8-16.4-190.5,49.6-206.9,147.4c-0.6,3.9-1.2,7.7-1.5,11.5
	C3170.7-403.7,3270.6-456.7,3379.5-456.4z"/>
<path class="st0" d="M5243.7,3691.9h-603.2c-36.3,0-65.8-29.4-65.8-65.8v-83.1c0-36.3,29.4-65.8,65.8-65.8h603.2
	c36.3,0,65.8,29.4,65.8,65.8v83.1C5309.5,3662.5,5280,3691.9,5243.7,3691.9z"/>
<rect x="4519.7" y="3537.2" style="fill:none;" width="881.4" height="116.8"/>
<text transform="matrix(1 0 0 1 4744.4219 3620.7498)" style="font-family:'SourceCodePro-Black'; font-size:120px;">Logger</text>
<polygon style="fill:none;" points="4865.3,3669.1 4868.7,3669.1 4868.7,3669.1 4865.3,3669.1 "/>
<path class="st2" d="M3248.1-587.7c10.5,18.1,17.9,38.3,21.6,60.1c16.5,97.8-49.5,190.5-147.3,207c-3.9,0.6-7.7,1.2-11.5,1.6
	C3195.6-378.8,3248.5-478.7,3248.1-587.7z"/>
<path class="st3" d="M3417.8-547.4c-9.6,17-27.9,28.5-48.8,28.5c-31,0-56.1-25.1-56.1-56.1c0-31,25.1-56.1,56.1-56.1
	c22.2,0,41.3,12.9,50.5,31.6l27.9-11.1c-13.5-29.7-43.5-50.4-78.3-50.4c-47.5,0-86,38.5-86,86c0,47.5,38.5,86,86,86
	c37.9,0,70-24.5,81.5-58.4H3417.8z"/>
<polygon class="st3" points="3450.5,-547.2 3381.3,-547.2 3381.3,-567.9 3450.5,-575 "/>
</svg>
