<?xml version="1.0" encoding="UTF-8" standalone="no"?>
<svg
   width="24px"
   height="24px"
   stroke-width="1.5"
   viewBox="0 0 24 24"
   fill="none"
   color="#b03f37"
   version="1.1"
   id="svg61"
   sodipodi:docname="place-segment.svg"
   inkscape:version="1.1.2 (0a00cf5339, 2022-02-04)"
   xmlns:inkscape="http://www.inkscape.org/namespaces/inkscape"
   xmlns:sodipodi="http://sodipodi.sourceforge.net/DTD/sodipodi-0.dtd"
   xmlns="http://www.w3.org/2000/svg"
   xmlns:svg="http://www.w3.org/2000/svg">
  <defs
     id="defs65" />
  <sodipodi:namedview
     id="namedview63"
     pagecolor="#505050"
     bordercolor="#eeeeee"
     borderopacity="1"
     inkscape:pageshadow="0"
     inkscape:pageopacity="0"
     inkscape:pagecheckerboard="0"
     showgrid="false"
     inkscape:zoom="31"
     inkscape:cx="0.61290323"
     inkscape:cy="11.983871"
     inkscape:window-width="1896"
     inkscape:window-height="940"
     inkscape:window-x="12"
     inkscape:window-y="52"
     inkscape:window-maximized="0"
     inkscape:current-layer="svg61" />
  <path
     d="M21 3.6V20.4C21 20.7314 20.7314 21 20.4 21H3.6C3.26863 21 3 20.7314 3 20.4V3.6C3 3.26863 3.26863 3 3.6 3H20.4C20.7314 3 21 3.26863 21 3.6Z"
     stroke="#b03f37"
     stroke-width="1.5"
     stroke-linecap="round"
     stroke-linejoin="round"
     id="path59"
     style="stroke:#b03f37;stroke-opacity:1" />
  <path
     style="fill:#b03f37;fill-opacity:1;stroke-width:0.0483871"
     d="M 3.7580645,12 V 3.7580645 H 12 20.241935 V 12 20.241935 H 12 3.7580645 Z"
     id="path3893" />
  <path
     style="fill:#b03f37;fill-opacity:1;stroke-width:0.0483871"
     d="M 3.7580645,12 V 3.7580645 H 12 20.241935 V 12 20.241935 H 12 3.7580645 Z"
     id="path3932" />
  <path
     style="fill:#b03f37;fill-opacity:1;stroke-width:0.0483871"
     d="M 3.7580645,12 V 3.7580645 H 12 20.241935 V 12 20.241935 H 12 3.7580645 Z"
     id="path3971" />
  <path
     style="fill:#b03f37;fill-opacity:1;stroke-width:0.0483871"
     d="M 3.7580645,12 V 3.7580645 H 12 20.241935 V 12 20.241935 H 12 3.7580645 Z"
     id="path4010" />
  <path
     style="fill:#b03f37;fill-opacity:1;stroke-width:0.0483871"
     d="M 3.7580645,12 V 3.7580645 H 12 20.241935 V 12 20.241935 H 12 3.7580645 Z"
     id="path4049" />
  <path
     style="fill:#b03f37;fill-opacity:1;stroke-width:0.0483871"
     d="M 3.7580645,12 V 3.7580645 H 12 20.241935 V 12 20.241935 H 12 3.7580645 Z"
     id="path4088" />
  <path
     style="fill:#b03f37;fill-opacity:1;stroke-width:0.0483871"
     d="M 3.7580645,12 V 3.7580645 H 12 20.241935 V 12 20.241935 H 12 3.7580645 Z"
     id="path4127" />
  <path
     style="fill:#b03f37;fill-opacity:1;stroke-width:0.0483871"
     d="M 3.7580645,12 V 3.7580645 H 12 20.241935 V 12 20.241935 H 12 3.7580645 Z"
     id="path4166" />
  <path
     style="fill:#b03f37;fill-opacity:1;stroke-width:0.0483871"
     d="M 3.7580645,12 V 3.7580645 H 12 20.241935 V 12 20.241935 H 12 3.7580645 Z"
     id="path4205" />
  <path
     style="fill:#b03f37;fill-opacity:1;stroke-width:0.0483871"
     d="M 3.7580645,12 V 3.7580645 H 12 20.241935 V 12 20.241935 H 12 3.7580645 Z"
     id="path4244" />
  <path
     style="fill:#b03f37;fill-opacity:1;stroke-width:0.0483871"
     d="M 3.7580645,12 V 3.7580645 H 12 20.241935 V 12 20.241935 H 12 3.7580645 Z"
     id="path4283" />
  <path
     style="fill:#b03f37;fill-opacity:1;stroke-width:0.0483871"
     d="M 3.7580645,12 V 3.7580645 H 12 20.241935 V 12 20.241935 H 12 3.7580645 Z"
     id="path4322" />
  <path
     style="fill:#b03f37;fill-opacity:1;stroke-width:0.0483871"
     d="M 3.7580645,12 V 3.7580645 H 12 20.241935 V 12 20.241935 H 12 3.7580645 Z"
     id="path4361" />
  <path
     style="fill:#b03f37;fill-opacity:1;stroke-width:0.0483871"
     d="M 3.7580645,12 V 3.7580645 H 12 20.241935 V 12 20.241935 H 12 3.7580645 Z"
     id="path4400" />
  <path
     style="fill:#b03f37;fill-opacity:1;stroke-width:0.0483871"
     d="M 3.7580645,12 V 3.7580645 H 12 20.241935 V 12 20.241935 H 12 3.7580645 Z"
     id="path4439" />
  <path
     style="fill:#b03f37;fill-opacity:1;stroke-width:0.0483871"
     d="M 3.7580645,12 V 3.7580645 H 12 20.241935 V 12 20.241935 H 12 3.7580645 Z"
     id="path4478" />
  <path
     style="fill:#b03f37;fill-opacity:1;stroke-width:0.0483871"
     d="M 3.7580645,12 V 3.7580645 H 12 20.241935 V 12 20.241935 H 12 3.7580645 Z"
     id="path4517" />
  <path
     style="fill:#b03f37;fill-opacity:1;stroke-width:0.0483871"
     d="M 3.7580645,12 V 3.7580645 H 12 20.241935 V 12 20.241935 H 12 3.7580645 Z"
     id="path4556" />
  <path
     style="fill:#b03f37;fill-opacity:1;stroke-width:0.0483871"
     d="M 3.7580645,12 V 3.7580645 H 12 20.241935 V 12 20.241935 H 12 3.7580645 Z"
     id="path4595" />
  <path
     style="fill:#b03f37;fill-opacity:1;stroke-width:0.0483871"
     d="M 3.7580645,12 V 3.7580645 H 12 20.241935 V 12 20.241935 H 12 3.7580645 Z"
     id="path4634" />
  <path
     style="fill:#b03f37;fill-opacity:1;stroke:#b03f37;stroke-width:0.0483871;stroke-opacity:1"
     d="M 3.7741935,12 V 3.7741935 H 12 20.225806 V 12 20.225806 H 12 3.7741935 Z"
     id="path12845" />
  <path
     style="fill:#b03f37;fill-opacity:1;stroke:#b03f37;stroke-width:0.0483871;stroke-opacity:1"
     d="M 3.7741935,12 V 3.7741935 H 12 20.225806 V 12 20.225806 H 12 3.7741935 Z"
     id="path12884" />
</svg>
